<?xml version="1.0" standalone="no"?>
<!DOCTYPE svg PUBLIC "-//W3C//DTD SVG 20010904//EN"
 "http://www.w3.org/TR/2001/REC-SVG-20010904/DTD/svg10.dtd">
<svg version="1.0" xmlns="http://www.w3.org/2000/svg"
 width="88.000000pt" height="357.000000pt" viewBox="0 0 88.000000 357.000000"
 preserveAspectRatio="xMidYMid meet">

<g transform="translate(0.000000,357.000000) scale(0.100000,-0.100000)"
fill="#000000" stroke="none">
<path d="M210 3542 c0 -7 10 -26 21 -42 27 -35 36 -114 19 -165 -7 -20 -9 -39
-6 -42 21 -21 47 91 35 149 -9 42 -68 128 -69 100z"/>
<path d="M530 3536 c0 -8 -6 -16 -12 -18 -9 -3 -7 -10 6 -24 14 -13 21 -15 24
-6 2 6 10 12 18 12 19 0 18 6 -6 30 -24 24 -30 25 -30 6z"/>
<path d="M302 3515 c-10 -12 -9 -18 4 -34 16 -18 17 -18 35 0 23 23 24 29 4
29 -8 0 -15 5 -15 10 0 14 -13 12 -28 -5z"/>
<path d="M625 3463 c0 -35 -4 -40 -47 -62 -45 -23 -48 -27 -48 -62 0 -21 4
-40 9 -44 6 -3 8 8 4 28 -4 28 -1 37 22 55 15 12 33 22 40 22 25 0 47 37 40
69 -9 43 -20 39 -20 -6z"/>
<path d="M435 3471 c-40 -17 -59 -50 -63 -112 -4 -51 -8 -62 -32 -79 -16 -11
-33 -20 -39 -20 -6 0 -11 -4 -11 -10 0 -14 6 -13 43 7 46 23 56 41 57 99 0 42
5 56 26 78 15 14 35 26 45 26 11 0 19 5 19 10 0 12 -17 12 -45 1z"/>
<path d="M730 3410 c0 -5 -7 -10 -15 -10 -21 0 -19 -13 5 -28 17 -10 23 -10
36 3 14 13 14 17 0 30 -17 17 -26 19 -26 5z"/>
<path d="M669 3281 c-24 -25 -29 -37 -29 -80 0 -53 -23 -91 -54 -91 -8 0 -18
-4 -21 -10 -12 -20 35 -9 62 14 24 21 29 34 33 88 5 59 7 64 38 80 45 22 50
28 23 28 -12 0 -36 -13 -52 -29z"/>
<path d="M434 3275 c-6 -23 -35 -54 -80 -82 -18 -11 -18 -12 4 -12 29 -1 89
56 98 92 4 17 2 27 -5 27 -6 0 -13 -11 -17 -25z"/>
<path d="M472 3244 c-11 -12 -11 -17 2 -29 18 -19 24 -19 42 0 14 13 14 17 0
30 -18 19 -27 18 -44 -1z"/>
<path d="M502 3183 c-51 -25 -95 -99 -67 -113 6 -3 11 5 13 17 4 27 60 83 83
83 25 0 49 11 49 21 0 14 -42 10 -78 -8z"/>
<path d="M186 3182 c-7 -11 8 -23 47 -40 23 -10 28 -10 25 0 -6 18 -65 51 -72
40z"/>
<path d="M406 3169 c-10 -7 -37 -9 -62 -5 -25 3 -44 2 -44 -4 0 -13 34 -30 60
-30 26 0 80 27 80 40 0 13 -10 12 -34 -1z"/>
<path d="M166 3124 c-7 -18 0 -34 15 -34 5 0 28 -9 52 -19 126 -58 181 -81
184 -77 2 2 -11 13 -29 24 -18 12 -44 32 -57 46 -14 14 -28 26 -32 26 -5 0
-33 11 -63 25 -65 30 -62 29 -70 9z"/>
<path d="M490 3074 c0 -9 -9 -18 -20 -21 -26 -7 -26 -23 -1 -23 11 0 27 10 35
22 20 28 20 38 1 38 -8 0 -15 -7 -15 -16z"/>
<path d="M150 3060 c0 -5 1 -10 3 -10 2 0 54 -22 116 -49 62 -28 119 -47 127
-44 10 3 -32 27 -105 59 -126 56 -141 61 -141 44z"/>
<path d="M564 3036 c-25 -19 -12 -31 17 -16 31 17 94 6 140 -24 43 -29 49 -31
49 -16 0 6 -21 24 -47 40 -53 34 -125 41 -159 16z"/>
<path d="M126 3014 c-8 -21 -14 -17 78 -59 52 -24 85 -33 102 -29 13 3 24 9
24 13 0 6 -119 62 -185 87 -7 3 -15 -3 -19 -12z"/>
<path d="M110 2951 c0 -12 98 -53 118 -48 11 2 -5 14 -42 30 -63 29 -76 32
-76 18z"/>
<path d="M90 2894 c-16 -41 -12 -44 36 -27 47 16 48 21 1 41 -25 11 -28 10
-37 -14z"/>
<path d="M323 2620 c-3 -11 -12 -20 -19 -20 -21 0 -17 -16 11 -46 l25 -27 25
27 c28 30 32 46 11 46 -7 0 -16 9 -19 20 -3 11 -10 20 -17 20 -7 0 -14 -9 -17
-20z"/>
<path d="M455 2519 c-40 -9 -69 -34 -59 -51 3 -5 -5 -6 -18 -3 -72 16 -114 25
-125 25 -13 0 -66 -131 -90 -223 -22 -89 -14 -189 19 -225 25 -26 25 -28 12
-87 -7 -33 -13 -66 -13 -73 -1 -10 -9 -12 -30 -7 -30 6 -45 -3 -33 -22 6 -10
104 -33 139 -33 23 0 14 29 -12 36 -29 7 -29 7 -14 91 9 53 15 64 34 69 66 16
122 155 126 309 l2 70 12 -80 c6 -44 17 -98 23 -121 16 -55 66 -122 97 -130
27 -7 41 -43 47 -119 3 -35 0 -40 -19 -43 -22 -3 -31 -26 -15 -36 5 -3 39 2
76 11 53 12 66 18 64 31 -2 12 -12 16 -30 14 -28 -3 -28 -5 -48 85 -11 51 -11
54 14 84 50 59 38 178 -35 362 -34 85 -36 86 -124 66z m84 -66 c8 -21 16 -43
18 -49 4 -10 -103 -42 -111 -33 -2 2 -7 25 -11 51 -7 44 -5 49 16 57 51 21 74
14 88 -26z m-211 -18 c19 -5 22 -13 22 -56 0 -47 -1 -49 -29 -49 -26 0 -91 18
-91 25 0 2 9 24 20 50 15 35 24 45 37 41 10 -2 28 -7 41 -11z m262 -122 c22
-72 24 -160 6 -188 -48 -73 -122 13 -150 174 -6 32 -5 33 22 29 16 -2 34 2 41
9 6 7 25 13 41 13 25 0 31 -5 40 -37z m-300 -20 c25 -3 49 -9 53 -13 12 -11
-10 -115 -35 -168 -39 -83 -99 -78 -117 9 -6 27 -9 54 -6 61 2 7 9 39 15 71
10 48 15 57 28 52 10 -4 37 -9 62 -12z"/>
<path d="M545 2230 c-3 -5 -1 -10 4 -10 6 0 11 5 11 10 0 6 -2 10 -4 10 -3 0
-8 -4 -11 -10z"/>
<path d="M260 2110 c0 -5 5 -10 10 -10 6 0 10 5 10 10 0 6 -4 10 -10 10 -5 0
-10 -4 -10 -10z"/>
<path d="M681 2254 l-24 -23 24 -26 c27 -28 49 -33 49 -10 0 8 7 15 15 15 8 0
15 9 15 20 0 11 -7 20 -15 20 -8 0 -15 7 -15 15 0 21 -21 17 -49 -11z"/>
<path d="M361 2035 l-23 -25 31 -32 c30 -31 32 -32 37 -11 3 12 14 23 25 26
25 7 24 27 -1 34 -11 3 -20 12 -20 19 0 22 -23 16 -49 -11z"/>
<path d="M227 1463 c-41 -6 -102 -71 -115 -122 -13 -54 3 -112 51 -185 37 -55
160 -185 220 -230 49 -38 55 -34 194 108 117 121 163 194 163 264 0 113 -93
189 -196 160 -42 -11 -114 -78 -114 -106 -1 -11 -6 -6 -17 13 -40 76 -105 110
-186 98z"/>
<path d="M380 552 c-78 -39 -131 -105 -249 -314 -54 -95 -78 -128 -92 -128
-16 0 -19 -7 -19 -40 0 -26 5 -40 13 -40 6 1 48 65 92 144 l79 143 110 67 c60
36 117 66 126 66 10 0 67 -30 126 -66 l109 -66 59 -100 c32 -55 68 -120 80
-144 27 -56 46 -57 46 -3 0 33 -3 40 -17 37 -14 -3 -38 31 -100 140 -124 216
-172 275 -250 307 -45 19 -70 18 -113 -3z"/>
<path d="M271 331 c-42 -25 -49 -36 -98 -150 -29 -68 -53 -125 -53 -127 0 -2
144 -4 320 -4 176 0 320 4 320 8 0 5 -6 22 -14 38 -13 28 -29 63 -74 165 -15
35 -32 54 -66 74 -26 15 -49 25 -52 22 -3 -3 0 -48 6 -101 7 -52 10 -102 6
-111 -5 -13 -25 -15 -128 -13 l-123 3 1 30 c0 17 4 67 8 113 5 45 4 82 0 81
-5 0 -29 -13 -53 -28z"/>
</g>
</svg>
