<?xml version="1.0" standalone="no"?>
<!DOCTYPE svg PUBLIC "-//W3C//DTD SVG 20010904//EN"
 "http://www.w3.org/TR/2001/REC-SVG-20010904/DTD/svg10.dtd">
<svg version="1.0" xmlns="http://www.w3.org/2000/svg"
 width="666.000000pt" height="374.000000pt" viewBox="0 0 666.000000 374.000000"
 preserveAspectRatio="xMidYMid meet">

<g transform="translate(0.000000,374.000000) scale(0.100000,-0.100000)"
fill="#000000" stroke="none">
<path d="M3315 1950 c-3 -5 -15 -10 -26 -10 -11 0 -22 -8 -25 -17 -3 -10 -10
-26 -16 -37 -6 -12 -6 -22 1 -29 6 -6 11 -19 11 -29 0 -10 8 -21 18 -24 9 -3
25 -10 36 -16 12 -6 22 -6 29 1 6 6 19 11 29 11 10 0 21 8 24 18 3 9 10 25 15
35 6 10 6 24 0 35 -5 9 -12 25 -15 35 -3 9 -14 17 -25 17 -11 0 -23 5 -26 10
-3 6 -10 10 -15 10 -5 0 -12 -4 -15 -10z"/>
</g>
</svg>
